<svg width="18" height="18" viewBox="0 0 18 18" fill="none" xmlns="http://www.w3.org/2000/svg">
<path d="M3.19922 4.21875C3.05859 4.05469 3 3.87891 3.02344 3.69141C3.04688 3.50391 3.12891 3.33984 3.26953 3.19922C3.41016 3.05859 3.58594 2.98828 3.79688 2.98828H14.2031C14.4141 2.98828 14.5898 3.05859 14.7305 3.19922C14.8711 3.33984 14.9531 3.50391 14.9766 3.69141C15 3.87891 14.9414 4.05469 14.8008 4.21875C14.4961 4.59375 14.1562 5.02734 13.7812 5.51953C13.4062 6.01172 13.0195 6.50391 12.6211 6.99609C12.2461 7.48828 11.8945 7.94531 11.5664 8.36719C11.2617 8.78906 11.0039 9.12891 10.793 9.38672C10.6055 9.62109 10.5117 9.73828 10.5117 9.73828V14.2383C10.5117 14.4492 10.4297 14.6367 10.2656 14.8008C10.125 14.9414 9.94922 15.0117 9.73828 15.0117H8.26172C8.05078 15.0117 7.86328 14.9414 7.69922 14.8008C7.55859 14.6367 7.48828 14.4492 7.48828 14.2383V9.73828C7.48828 9.73828 7.38281 9.62109 7.17188 9.38672C6.98438 9.12891 6.72656 8.78906 6.39844 8.36719C6.09375 7.94531 5.74219 7.48828 5.34375 6.99609C4.96875 6.50391 4.59375 6.01172 4.21875 5.51953C3.84375 5.02734 3.50391 4.59375 3.19922 4.21875Z" fill="white"/>
</svg>
